<mxfile host="app.diagrams.net" agent="Mozilla/5.0 (Windows NT 10.0; Win64; x64) AppleWebKit/537.36 (KHTML, like Gecko) Chrome/130.0.0.0 Safari/537.36" version="24.8.6">
  <diagram name="Trang-1" id="QRjsnrPinivm2j0ZJekZ">
    <mxGraphModel dx="794" dy="446" grid="1" gridSize="10" guides="1" tooltips="1" connect="1" arrows="1" fold="1" page="1" pageScale="1" pageWidth="827" pageHeight="1169" math="0" shadow="0">
      <root>
        <mxCell id="0" />
        <mxCell id="1" parent="0" />
        <mxCell id="ScoSf38PYg2NTekuRu35-3" value="" style="edgeStyle=orthogonalEdgeStyle;rounded=0;orthogonalLoop=1;jettySize=auto;html=1;" edge="1" parent="1" source="ScoSf38PYg2NTekuRu35-1" target="ScoSf38PYg2NTekuRu35-2">
          <mxGeometry relative="1" as="geometry" />
        </mxCell>
        <mxCell id="ScoSf38PYg2NTekuRu35-1" value="start" style="ellipse;whiteSpace=wrap;html=1;" vertex="1" parent="1">
          <mxGeometry x="354" y="20" width="120" height="80" as="geometry" />
        </mxCell>
        <mxCell id="ScoSf38PYg2NTekuRu35-5" value="" style="edgeStyle=orthogonalEdgeStyle;rounded=0;orthogonalLoop=1;jettySize=auto;html=1;" edge="1" parent="1" source="ScoSf38PYg2NTekuRu35-2" target="ScoSf38PYg2NTekuRu35-4">
          <mxGeometry relative="1" as="geometry" />
        </mxCell>
        <mxCell id="ScoSf38PYg2NTekuRu35-2" value="nhập 2 số ngẫu nhiên&amp;nbsp;" style="shape=parallelogram;perimeter=parallelogramPerimeter;whiteSpace=wrap;html=1;fixedSize=1;" vertex="1" parent="1">
          <mxGeometry x="354" y="150" width="120" height="60" as="geometry" />
        </mxCell>
        <mxCell id="ScoSf38PYg2NTekuRu35-7" value="" style="edgeStyle=orthogonalEdgeStyle;rounded=0;orthogonalLoop=1;jettySize=auto;html=1;" edge="1" parent="1" source="ScoSf38PYg2NTekuRu35-4" target="ScoSf38PYg2NTekuRu35-6">
          <mxGeometry relative="1" as="geometry" />
        </mxCell>
        <mxCell id="ScoSf38PYg2NTekuRu35-4" value="so sánh 2 số đó tìm ra số lớn hơn&amp;nbsp;" style="rhombus;whiteSpace=wrap;html=1;" vertex="1" parent="1">
          <mxGeometry x="356" y="250" width="116" height="80" as="geometry" />
        </mxCell>
        <mxCell id="ScoSf38PYg2NTekuRu35-6" value="kết thúc&amp;nbsp;" style="ellipse;whiteSpace=wrap;html=1;" vertex="1" parent="1">
          <mxGeometry x="339" y="400" width="150" height="80" as="geometry" />
        </mxCell>
      </root>
    </mxGraphModel>
  </diagram>
</mxfile>
